<svg xmlns="http://www.w3.org/2000/svg" xmlns:xlink="http://www.w3.org/1999/xlink" width="500" zoomAndPan="magnify" viewBox="0 0 375 374.999991" height="500" preserveAspectRatio="xMidYMid meet" version="1.0"><defs><g/><clipPath id="bc04245970"><path d="M 38 103 L 170 103 L 170 277 L 38 277 Z M 38 103 " clip-rule="nonzero"/></clipPath><clipPath id="286f1d8440"><path d="M 6.085938 238.964844 L 89.878906 71.230469 L 173.746094 113.125 L 89.953125 280.859375 Z M 6.085938 238.964844 " clip-rule="nonzero"/></clipPath><clipPath id="5bd54ebac6"><path d="M 38 122 L 96 122 L 96 277 L 38 277 Z M 38 122 " clip-rule="nonzero"/></clipPath><clipPath id="15653b07a5"><path d="M 6.085938 238.964844 L 89.878906 71.230469 L 173.746094 113.125 L 89.953125 280.859375 Z M 6.085938 238.964844 " clip-rule="nonzero"/></clipPath></defs><g fill="#000000" fill-opacity="1"><g transform="translate(83.646399, 210.507627)"><g><path d="M 18.878906 0 C 39.117188 0 48.316406 -11.839844 48.316406 -27.199219 C 48.316406 -42.558594 39.039062 -54.398438 18.878906 -54.398438 L 5.917969 -54.398438 C 4.878906 -54.398438 4.320312 -53.835938 4.320312 -52.796875 L 4.320312 -1.601562 C 4.320312 -0.558594 4.878906 0 5.917969 0 Z M 16.320312 -43.515625 L 20 -43.515625 C 31.679688 -43.515625 36.316406 -36.238281 36.316406 -27.199219 C 36.316406 -18.160156 31.597656 -10.878906 20 -10.878906 L 16.320312 -10.878906 Z M 16.320312 -43.515625 "/></g></g></g><g fill="#000000" fill-opacity="1"><g transform="translate(134.121387, 210.507627)"><g><path d="M 31.277344 -53.117188 C 30.957031 -53.917969 30.316406 -54.398438 29.4375 -54.398438 L 22 -54.398438 C 21.117188 -54.398438 20.480469 -53.917969 20.160156 -53.117188 L -0.480469 1.601562 C 8.640625 0 15.558594 -5.320312 19.398438 -17.71875 C 21.199219 -13.679688 25.4375 -10.960938 31.917969 -10.960938 L 34.835938 -10.960938 L 37.996094 -1.28125 C 38.316406 -0.320312 38.878906 0 39.757812 0 L 49.277344 0 C 50.15625 0 50.71875 -0.480469 50.71875 -1.199219 C 50.71875 -1.359375 50.636719 -1.601562 50.558594 -1.839844 Z M 25.757812 -38.558594 L 31.597656 -20.796875 L 20.359375 -20.796875 Z M 25.757812 -38.558594 "/></g></g></g><g fill="#ff1616" fill-opacity="1"><g transform="translate(185.154205, 210.507627)"><g><path d="M 18.878906 0 C 39.117188 0 48.316406 -11.839844 48.316406 -27.199219 C 48.316406 -42.558594 39.039062 -54.398438 18.878906 -54.398438 L 5.917969 -54.398438 C 4.878906 -54.398438 4.320312 -53.835938 4.320312 -52.796875 L 4.320312 -1.601562 C 4.320312 -0.558594 4.878906 0 5.917969 0 Z M 16.320312 -43.515625 L 20 -43.515625 C 31.679688 -43.515625 36.316406 -36.238281 36.316406 -27.199219 C 36.316406 -18.160156 31.597656 -10.878906 20 -10.878906 L 16.320312 -10.878906 Z M 16.320312 -43.515625 "/></g></g></g><g fill="#ff1616" fill-opacity="1"><g transform="translate(235.629193, 210.507627)"><g><path d="M 22.71875 -36.558594 C 10.878906 -36.558594 2.160156 -29.117188 2.160156 -17.597656 C 2.160156 -5.917969 10.558594 1.28125 22.71875 1.28125 C 31.519531 1.28125 38.476562 -2.558594 41.277344 -10.558594 C 41.675781 -11.679688 41.039062 -12.398438 39.917969 -12.398438 L 31.039062 -12.398438 C 30.15625 -12.398438 29.679688 -11.917969 29.277344 -11.039062 C 28.316406 -8.878906 26 -7.28125 22.480469 -7.28125 C 18 -7.28125 15.199219 -10.480469 14.878906 -15.359375 L 40.636719 -15.359375 C 41.675781 -15.359375 42.238281 -15.917969 42.238281 -16.957031 L 42.238281 -18.398438 C 42.238281 -30.078125 33.4375 -36.558594 22.71875 -36.558594 Z M 15.039062 -21.839844 C 15.71875 -25.679688 17.878906 -28.398438 22.320312 -28.398438 C 26.558594 -28.398438 29.277344 -25.679688 29.519531 -21.839844 Z M 15.039062 -21.839844 "/></g></g></g><g fill="#ff1616" fill-opacity="1"><g transform="translate(280.18477, 210.507627)"><g><path d="M 26.558594 0 C 27.4375 0 28.078125 -0.480469 28.398438 -1.28125 L 41.597656 -36.078125 C 33.359375 -36.078125 28.078125 -31.996094 25.117188 -23.039062 L 20.796875 -10.078125 L 12.800781 -33.996094 C 12.480469 -34.878906 11.917969 -35.277344 11.039062 -35.277344 L 2.320312 -35.277344 C 1.121094 -35.277344 0.640625 -34.558594 1.039062 -33.4375 L 13.277344 -1.28125 C 13.597656 -0.480469 14.238281 0 15.117188 0 Z M 26.558594 0 "/></g></g></g></svg>